<svg width="29" height="29" viewBox="0 0 29 29" fill="none" xmlns="http://www.w3.org/2000/svg">
<g id="Group">
<path id="Vector" d="M15.95 3.20208C15.5317 2.88835 15.0229 2.71875 14.5 2.71875C13.9771 2.71875 13.4683 2.88835 13.05 3.20208L4.59167 9.54583C4.29153 9.77094 4.04792 10.0628 3.88013 10.3984C3.71235 10.734 3.625 11.104 3.625 11.4792V22.9583C3.625 23.5993 3.87961 24.214 4.33283 24.6672C4.78604 25.1204 5.40073 25.375 6.04167 25.375H10.7542C11.1067 25.375 11.4448 25.235 11.694 24.9857C11.9433 24.7364 12.0833 24.3983 12.0833 24.0458V18.125C12.0833 17.4841 12.3379 16.8694 12.7912 16.4162C13.2444 15.9629 13.8591 15.7083 14.5 15.7083C15.1409 15.7083 15.7556 15.9629 16.2088 16.4162C16.6621 16.8694 16.9167 17.4841 16.9167 18.125V24.0458C16.9167 24.3983 17.0567 24.7364 17.306 24.9857C17.5552 25.235 17.8933 25.375 18.2458 25.375H22.9583C23.5993 25.375 24.214 25.1204 24.6672 24.6672C25.1204 24.214 25.375 23.5993 25.375 22.9583V11.4792C25.375 11.104 25.2877 10.734 25.1199 10.3984C24.9521 10.0628 24.7085 9.77094 24.4083 9.54583L15.95 3.20208Z" fill="#017BF4"/>
</g>
</svg>
