<svg width="25" height="32" viewBox="0 0 25 32" fill="none" xmlns="http://www.w3.org/2000/svg">
<path id="Vector" d="M23.6442 16.016C23.8494 16.0454 24.0469 16.1157 24.2253 16.2226C24.4038 16.3296 24.5597 16.4713 24.6842 16.6395C24.8087 16.8078 24.8992 16.9993 24.9507 17.2031C25.0021 17.4069 25.0135 17.6189 24.9841 17.8272C24.5889 20.6016 23.3078 23.1679 21.3373 25.1321C19.3668 27.0963 16.8158 28.35 14.0756 28.7008V30.4C14.0756 30.8243 13.9095 31.2313 13.6139 31.5314C13.3183 31.8314 12.9173 32 12.4992 32C12.0812 32 11.6802 31.8314 11.3846 31.5314C11.0889 31.2313 10.9229 30.8243 10.9229 30.4V28.7008C8.18309 28.3494 5.63253 27.0955 3.66238 25.1313C1.69223 23.1672 0.411271 20.6013 0.0159782 17.8272C-0.043389 17.4071 0.0640957 16.9803 0.314787 16.6406C0.565478 16.3009 0.93884 16.0763 1.35274 16.016C1.76664 15.9557 2.18717 16.0648 2.52181 16.3193C2.85646 16.5737 3.07782 16.9527 3.13719 17.3728C3.46321 19.6569 4.58893 21.7455 6.30822 23.2559C8.02752 24.7664 10.2253 25.5978 12.4992 25.5978C14.7731 25.5978 16.9709 24.7664 18.6902 23.2559C20.4095 21.7455 21.5353 19.6569 21.8613 17.3728C21.8906 17.1648 21.9601 16.9647 22.0657 16.7839C22.1713 16.6031 22.3109 16.4452 22.4766 16.3192C22.6423 16.1932 22.8308 16.1016 23.0314 16.0496C23.232 15.9975 23.4392 15.9861 23.6442 16.016ZM12.4992 0C14.5896 0 16.5944 0.842855 18.0725 2.34315C19.5507 3.84344 20.3811 5.87827 20.3811 8V16C20.3811 18.1217 19.5507 20.1566 18.0725 21.6569C16.5944 23.1571 14.5896 24 12.4992 24C10.4088 24 8.40406 23.1571 6.92593 21.6569C5.4478 20.1566 4.6174 18.1217 4.6174 16V8C4.6174 5.87827 5.4478 3.84344 6.92593 2.34315C8.40406 0.842855 10.4088 0 12.4992 0Z" fill="#303030"/>
</svg>
