<svg width="25" height="25" viewBox="0 0 25 25" fill="none" xmlns="http://www.w3.org/2000/svg">
<path id="Vector" d="M19.3708 17.6622L24.5461 22.8363L22.8363 24.5461L17.6622 19.3708C15.737 20.9141 13.3424 21.7535 10.875 21.75C4.872 21.75 0 16.878 0 10.875C0 4.872 4.872 0 10.875 0C16.878 0 21.75 4.872 21.75 10.875C21.7535 13.3424 20.9141 15.737 19.3708 17.6622ZM16.9469 16.7656C18.4804 15.1886 19.3368 13.0747 19.3333 10.875C19.3333 6.20237 15.5476 2.41667 10.875 2.41667C6.20237 2.41667 2.41667 6.20237 2.41667 10.875C2.41667 15.5476 6.20237 19.3333 10.875 19.3333C13.0747 19.3368 15.1886 18.4804 16.7656 16.9469L16.9469 16.7656Z" fill="#BDBDBD"/>
</svg>
