<svg width="26" height="29" viewBox="0 0 26 29" fill="none" xmlns="http://www.w3.org/2000/svg">
<rect width="26" height="29" fill="#1E1E1E"/>
<g id="Watch page:1 - TV" clip-path="url(#clip0_0_1)">
<rect width="1920" height="1721" transform="translate(-86 -431)" fill="#1A1A1A"/>
<g id="Component 7">
<g id="Rectangle 180" filter="url(#filter0_f_0_1)">
<rect x="-86" y="-431" width="480" height="1082" fill="black" fill-opacity="0.7"/>
</g>
<g id="Group">
<path id="Vector" d="M20.125 23.75H5.625C3.61675 23.75 2 22.1333 2 20.125V11.0625C2 9.05425 3.61675 7.4375 5.625 7.4375H20.125C22.1333 7.4375 23.75 9.05425 23.75 11.0625V20.125C23.75 22.1333 22.1332 23.75 20.125 23.75Z" stroke="#303030" stroke-width="4" stroke-linecap="round" stroke-linejoin="round"/>
<path id="Vector_2" d="M9.25 27.375H16.5" stroke="#303030" stroke-width="2" stroke-linecap="round" stroke-linejoin="round"/>
<path id="Vector_3" d="M12.875 7.4375L18.3125 2" stroke="#303030" stroke-width="4" stroke-linecap="round" stroke-linejoin="round"/>
<path id="Vector_4" d="M12.875 7.4375L7.4375 2" stroke="#303030" stroke-width="4" stroke-linecap="round" stroke-linejoin="round"/>
</g>
</g>
</g>
<defs>
<filter id="filter0_f_0_1" x="-236" y="-581" width="780" height="1382" filterUnits="userSpaceOnUse" color-interpolation-filters="sRGB">
<feFlood flood-opacity="0" result="BackgroundImageFix"/>
<feBlend mode="normal" in="SourceGraphic" in2="BackgroundImageFix" result="shape"/>
<feGaussianBlur stdDeviation="75" result="effect1_foregroundBlur_0_1"/>
</filter>
<clipPath id="clip0_0_1">
<rect width="1920" height="1721" fill="white" transform="translate(-86 -431)"/>
</clipPath>
</defs>
</svg>
