<svg width="25" height="25" viewBox="0 0 25 25" fill="none" xmlns="http://www.w3.org/2000/svg">
<path id="Vector" fill-rule="evenodd" clip-rule="evenodd" d="M12.0833 0C5.40971 0 0 5.40971 0 12.0833C0 18.757 5.40971 24.1667 12.0833 24.1667C18.757 24.1667 24.1667 18.757 24.1667 12.0833C24.1667 5.40971 18.757 0 12.0833 0ZM7.85417 9.0625C7.85417 8.50712 7.96356 7.95717 8.17609 7.44407C8.38863 6.93096 8.70015 6.46474 9.09286 6.07203C9.48557 5.67931 9.95179 5.36779 10.4649 5.15526C10.978 4.94272 11.528 4.83333 12.0833 4.83333C12.6387 4.83333 13.1887 4.94272 13.7018 5.15526C14.2149 5.36779 14.6811 5.67931 15.0738 6.07203C15.4665 6.46474 15.778 6.93096 15.9906 7.44407C16.2031 7.95717 16.3125 8.50712 16.3125 9.0625C16.3125 10.1841 15.8669 11.2598 15.0738 12.053C14.2807 12.8461 13.205 13.2917 12.0833 13.2917C10.9617 13.2917 9.88598 12.8461 9.09286 12.053C8.29974 11.2598 7.85417 10.1841 7.85417 9.0625ZM19.6451 18.1057C18.7406 19.2435 17.5907 20.1622 16.2813 20.7932C14.9719 21.4243 13.5369 21.7514 12.0833 21.75C10.6298 21.7514 9.19477 21.4243 7.88538 20.7932C6.57599 20.1622 5.4261 19.2435 4.52158 18.1057C6.48029 16.7004 9.15312 15.7083 12.0833 15.7083C15.0135 15.7083 17.6864 16.7004 19.6451 18.1057Z" fill="#BDBDBD"/>
</svg>
